<svg width="180" height="28" viewBox="0 0 180 28" fill="none" xmlns="http://www.w3.org/2000/svg">
<path fill-rule="evenodd" clip-rule="evenodd" d="M151.253 17.6363C151.438 17.7477 151.602 17.7381 151.755 17.7292C151.798 17.7267 151.84 17.7244 151.881 17.7246C154.328 17.7291 156.777 17.7291 159.226 17.7246C159.359 17.7246 159.491 17.73 159.627 17.7358H159.629C159.694 17.7385 159.761 17.7411 159.828 17.7433C159.906 18.0656 159.899 18.3717 159.892 18.671C159.888 18.7927 159.886 18.9133 159.888 19.0333C159.896 19.3274 159.893 19.6213 159.891 19.9153C159.89 19.9825 159.89 20.0497 159.889 20.1169C159.889 20.1967 159.888 20.2766 159.888 20.3563V21.6442C159.837 21.6526 159.789 21.6611 159.745 21.6691L159.744 21.6693L159.742 21.6695L159.714 21.6747L159.694 21.6782C159.671 21.6822 159.649 21.686 159.628 21.6895C159.58 21.6973 159.533 21.7039 159.487 21.7081C159.407 21.7154 159.336 21.7129 159.266 21.7106C159.23 21.7093 159.195 21.7081 159.158 21.7081H144.475C144.325 21.7081 144.179 21.7029 144.037 21.6979C143.971 21.6956 143.905 21.6933 143.84 21.6916C143.748 21.2373 143.724 19.1611 143.794 18.1633C143.931 18.0531 144.087 17.933 144.245 17.8118C144.894 17.3099 145.546 16.8094 146.197 16.3089C147.635 15.2047 149.072 14.1002 150.494 12.9803C151.238 12.3955 151.942 11.754 152.644 11.1137L152.774 10.9959C153.418 10.423 153.976 9.75982 154.432 9.0266C154.768 8.50016 154.995 7.91112 155.1 7.29463C155.291 6.10389 154.82 5.10284 153.769 4.52398C153.209 4.20931 152.584 4.03153 151.943 4.00465C149.798 3.91748 147.921 4.58024 146.313 6.01462C146.245 6.07529 146.18 6.13807 146.112 6.1997L145.885 6.40705C145.635 6.21602 145.438 5.97603 145.244 5.73853L145.244 5.73795C145.166 5.64273 145.088 5.54788 145.008 5.45669C144.85 5.27794 144.697 5.09939 144.543 4.92084L144.542 4.91988C144.423 4.78049 144.303 4.64091 144.18 4.50075C143.983 4.27535 143.78 4.03902 143.57 3.7948C143.482 3.69266 143.393 3.58898 143.303 3.48416C143.33 3.45305 143.354 3.42253 143.377 3.39258L143.382 3.38624L143.393 3.3728L143.407 3.35379L143.427 3.32825L143.427 3.32768C143.48 3.25837 143.53 3.19367 143.587 3.13473C144.937 1.74336 146.583 0.88227 148.439 0.391536C149.912 0.0108149 151.442 -0.0934351 152.952 0.0839661C154.695 0.272503 156.282 0.879968 157.628 2.0444C159.029 3.25703 159.688 4.80948 159.738 6.64628C159.773 7.92859 159.436 9.11376 158.834 10.2317C158.391 11.0371 157.854 11.7865 157.236 12.4644C156.146 13.6838 154.926 14.761 153.653 15.7809C153.215 16.1305 152.771 16.4702 152.326 16.8098L152.326 16.81C152.102 16.9809 151.878 17.1519 151.654 17.3243C151.544 17.4046 151.434 17.4916 151.304 17.5956L151.253 17.6363ZM0 21.6772V0.583529C0.00845685 0.50462 0.0242385 0.42667 0.0471388 0.350833C0.0959136 0.346609 0.143379 0.341616 0.189983 0.336625C0.291028 0.325873 0.388137 0.315508 0.485643 0.315508C1.36289 0.315508 2.24015 0.314356 3.11716 0.313012C4.87044 0.310708 6.62274 0.308212 8.37215 0.315508C9.72492 0.325492 11.0722 0.452208 12.3735 0.843681C14.9376 1.61549 16.9778 3.08961 18.4029 5.39276C19.013 6.39803 19.4288 7.51005 19.6285 8.67065C20.0145 10.7808 19.9246 12.8724 19.2263 14.9142C18.6287 16.6618 17.5742 18.0896 16.1479 19.2439C14.7868 20.335 13.1834 21.0782 11.4746 21.4103C10.453 21.6117 9.41421 21.7114 8.37324 21.7081C6.63311 21.7169 4.89296 21.7141 3.15284 21.711C2.28278 21.7096 1.41271 21.7081 0.542649 21.7081C0.434627 21.7104 0.325579 21.7018 0.195485 21.6916C0.135458 21.6868 0.0709535 21.6818 0 21.6772ZM4.59772 17.6981C4.6443 17.702 4.68769 17.7066 4.72902 17.711C4.80626 17.7193 4.87636 17.7267 4.94632 17.7267C5.27698 17.7267 5.60771 17.7279 5.93848 17.7289H5.93871H5.93892H5.93915H5.93938C6.79486 17.7316 7.65072 17.7342 8.50587 17.7191C9.03562 17.7181 9.56422 17.6701 10.0856 17.5758C12.4809 17.1016 14.0552 15.6442 14.8565 13.3608C15.3882 11.8481 15.3509 10.2989 14.9124 8.75762C14.551 7.45668 13.7648 6.31567 12.6804 5.51851C11.707 4.7876 10.5326 4.37731 9.31821 4.34428C8.24423 4.30339 7.16677 4.30435 6.09132 4.3055H6.09099H6.09069H6.09036H6.09006C5.6873 4.30588 5.28465 4.30627 4.88273 4.30454C4.78322 4.31299 4.68479 4.33142 4.58894 4.35964C4.51769 4.912 4.52207 17.1823 4.59772 17.6981ZM81.6231 6.27592V6.87129V20.642C81.6231 21.6398 81.5135 22.6187 81.1846 23.5637C80.6606 25.0334 79.7376 26.1358 78.3454 26.8414C77.1198 27.4604 75.7867 27.8348 74.4197 27.944C72.9628 28.0838 71.4926 27.9613 70.0785 27.5823C68.8074 27.2402 67.6292 26.6151 66.6306 25.7534C66.7612 25.3631 67.9461 23.4191 68.3913 22.8658C68.4046 22.8768 68.418 22.8877 68.4316 22.8986C68.4482 22.9121 68.4648 22.9255 68.4814 22.939L68.4816 22.9392C68.5455 22.9906 68.6095 23.0419 68.6698 23.0974C69.6751 24.0278 70.8755 24.4941 72.2205 24.6485C73.0368 24.7514 73.8646 24.7114 74.6673 24.5306C75.2175 24.396 75.7379 24.1597 76.2021 23.8338C76.7231 23.4829 77.1114 22.966 77.305 22.3663C77.4688 21.898 77.5558 21.4061 77.5627 20.9098V19.2395C77.4693 19.3019 77.3796 19.3696 77.2941 19.4424C77.22 19.5163 77.1486 19.5923 77.077 19.6684C76.9982 19.7525 76.9192 19.8366 76.8369 19.9176C75.5115 21.2174 73.9153 21.7334 72.0858 21.577C71.3386 21.5305 70.6046 21.3571 69.915 21.0642C68.07 20.2296 66.8763 18.8073 66.3116 16.8745C65.7067 14.8371 65.7067 12.6662 66.3116 10.6286C66.8773 8.66949 68.0778 7.22955 69.9414 6.38939C70.8579 5.97699 71.8313 5.85584 72.8278 5.86122C74.5293 5.87235 75.9467 6.52283 77.111 7.75542C77.1862 7.83644 77.2569 7.92379 77.3191 8.00059L77.3195 8.00098V8.00117L77.3428 8.02997L77.3506 8.03956C77.3672 8.05992 77.383 8.07931 77.3981 8.09717C77.43 8.09237 77.4533 8.08967 77.4707 8.08756C77.5003 8.08391 77.5123 8.08257 77.5199 8.07624C77.527 8.07124 77.5331 8.06472 77.5373 8.05704C77.5386 8.05492 77.5396 8.05281 77.5405 8.0507L77.5413 8.04859L77.5421 8.04705C77.5436 8.04225 77.5447 8.03726 77.5451 8.03227V6.31221C77.6385 6.27861 77.7351 6.2548 77.8334 6.24175C79.0026 6.23733 80.1721 6.23733 81.3413 6.24175C81.4358 6.24828 81.53 6.2596 81.6231 6.27592ZM77.5539 11.2053C77.4319 11.0439 77.3017 10.8889 77.1635 10.7411C76.9951 10.5714 76.8117 10.4176 76.6154 10.2815C75.608 9.60008 74.515 9.29788 73.2938 9.49199C71.8687 9.71912 70.882 10.514 70.3744 11.8493C69.9057 13.0623 69.9057 14.408 70.3744 15.621C70.8295 16.8338 71.7042 17.6265 72.9792 17.9099C74.5873 18.267 75.9675 17.7819 77.1625 16.6971C77.2994 16.5566 77.4269 16.407 77.544 16.2494L77.5539 11.2053ZM177.117 0.313393H170.962C170.916 0.380014 170.873 0.442224 170.832 0.501741C170.76 0.605609 170.694 0.701799 170.628 0.800675C170.126 1.58861 169.623 2.37617 169.12 3.16334C166.976 6.53415 164.827 9.90094 162.671 13.2637C162.477 13.5511 162.379 13.8927 162.391 14.2396C162.405 14.857 162.403 15.4733 162.401 16.0894V16.0908C162.4 16.3191 162.399 16.5471 162.399 16.7754C162.399 16.8697 162.409 16.968 162.42 17.0797V17.0799C162.425 17.1314 162.43 17.1857 162.435 17.2439C162.522 17.2464 162.606 17.2496 162.688 17.2527L162.689 17.2529H162.69C162.832 17.2585 162.968 17.2637 163.104 17.2637H171.874C171.923 17.2637 171.972 17.2621 172.021 17.2606H172.021C172.119 17.2573 172.216 17.2543 172.312 17.2637C172.441 17.2825 172.568 17.3094 172.693 17.3443V18.7908C172.693 18.8747 172.693 18.9586 172.692 19.0427C172.692 19.1185 172.692 19.1947 172.692 19.2708C172.691 19.5906 172.69 19.9103 172.693 20.224C172.693 20.2747 172.693 20.3254 172.693 20.3761C172.693 20.4162 172.693 20.4563 172.693 20.4964L172.692 20.5393C172.692 20.5778 172.692 20.6164 172.692 20.6552V20.6556V20.6558V20.656V20.6564C172.688 20.9881 172.685 21.3274 172.713 21.6872C172.848 21.6891 172.978 21.6914 173.105 21.6937H173.106C173.354 21.6983 173.591 21.7025 173.833 21.7025H174.929C174.959 21.7025 174.989 21.7027 175.019 21.7027C175.054 21.7029 175.088 21.7033 175.122 21.7035C175.156 21.7039 175.19 21.7043 175.224 21.7046L175.312 21.7058C175.568 21.7089 175.824 21.7121 176.079 21.7025C176.184 21.6991 176.289 21.7031 176.395 21.7073C176.653 21.7175 176.916 21.7279 177.189 21.6286C177.19 21.5599 177.193 21.4917 177.195 21.4241V21.4222L177.195 21.4203C177.2 21.2874 177.205 21.1563 177.205 21.0256V17.8855C177.205 17.8483 177.203 17.8105 177.201 17.7721C177.193 17.6098 177.185 17.4391 177.332 17.2671C177.352 17.2665 177.372 17.2658 177.392 17.265C177.419 17.264 177.446 17.2631 177.474 17.2619H177.474C177.589 17.2575 177.714 17.2527 177.84 17.2527H179.594C179.728 17.2416 179.862 17.2212 179.994 17.1921V15.2439C179.994 15.199 179.994 15.1542 179.994 15.1097C179.995 15.0513 179.995 14.993 179.996 14.9348C179.998 14.7297 180 14.5247 179.994 14.3079C179.992 14.2596 179.992 14.211 179.993 14.1624C179.994 14.1142 179.995 14.0658 179.996 14.0173V14.0157C180.002 13.784 180.009 13.5461 179.948 13.2913H179.896L179.854 13.2915C179.732 13.2917 179.613 13.2925 179.495 13.2933C179.203 13.2952 178.918 13.2971 178.619 13.2913C178.481 13.2886 178.343 13.2911 178.204 13.2938C177.888 13.2996 177.567 13.3055 177.229 13.2504C177.226 13.1779 177.223 13.108 177.219 13.04C177.213 12.8976 177.206 12.7634 177.206 12.6297V8.55046V1.00572C177.206 0.99785 177.206 0.98998 177.206 0.981916C177.206 0.970781 177.206 0.959448 177.207 0.948121C177.207 0.926042 177.208 0.903967 177.209 0.881696V0.880348V0.8792V0.877664L177.209 0.876124C177.215 0.701218 177.222 0.517097 177.117 0.313393ZM167.046 12.9505C168.379 10.762 172.253 4.87668 172.671 4.43567L172.674 13.2362C172.571 13.265 172.464 13.2842 172.357 13.2934H167.205C167.149 13.2934 167.091 13.2856 167.022 13.2762L167.021 13.276L167.02 13.2758C166.983 13.2708 166.943 13.2654 166.899 13.2604C166.918 13.2195 166.935 13.1809 166.951 13.1445C166.982 13.0728 167.01 13.0091 167.046 12.9505ZM124.639 6.4059C123.596 5.98582 122.49 5.85469 121.368 5.85469C121.233 5.86102 121.099 5.8664 120.964 5.87178H120.963C120.697 5.88253 120.43 5.89328 120.161 5.91094C119.943 5.93129 119.726 5.96451 119.512 6.0102C116.57 6.58675 114.616 8.32659 113.603 11.1379C113.089 12.5658 113.042 14.0476 113.292 15.535C113.663 17.7456 114.79 19.4842 116.613 20.7666C117.259 21.2162 117.979 21.5472 118.74 21.7444C120.315 22.1783 121.973 22.2117 123.564 21.8415C126.263 21.213 128.077 19.5328 129.064 16.9638C129.673 15.376 129.781 13.6377 129.373 11.986C128.746 9.32111 127.177 7.43575 124.639 6.4059ZM125.062 12.0829C125.283 12.6384 125.39 13.2326 125.377 13.8305C125.38 15.1205 125.093 16.1766 124.374 17.0895C123.704 17.945 122.831 18.4202 121.749 18.4676C121.314 18.4936 120.876 18.4719 120.445 18.4026C119.523 18.2428 118.817 17.7235 118.26 16.9693C117.089 15.3827 117.081 12.6992 118.167 11.1028C119.04 9.82164 120.26 9.32764 121.748 9.44898C123.418 9.58338 124.468 10.5614 125.062 12.0829ZM95.0918 13.8437C95.0918 13.5703 95.0962 13.3082 95.1004 13.0542C95.1096 12.5015 95.118 11.9869 95.0798 11.4755C95.0162 10.6265 94.5315 10.0156 93.7872 9.62101C93.2842 9.35817 92.7317 9.20477 92.1659 9.17117C90.3648 9.03889 88.7816 9.56802 87.3938 10.7146C87.3365 10.7624 87.2764 10.8056 87.2157 10.8494C87.202 10.8592 87.1884 10.869 87.1747 10.8789C87.1737 10.8797 87.1726 10.8803 87.1714 10.8809C87.1703 10.8814 87.1691 10.8818 87.1678 10.882C87.167 10.8824 87.1663 10.8824 87.1653 10.8826C87.1605 10.8834 87.1544 10.8834 87.1462 10.8834C87.1313 10.8834 87.1094 10.8834 87.076 10.8878C86.9154 10.6042 86.7539 10.3187 86.5911 10.0309C86.2643 9.45321 85.9321 8.8659 85.5927 8.26707C86.2223 7.71874 86.9185 7.25316 87.6647 6.88108C89.1993 6.1181 90.8437 5.83587 92.5452 5.86352C93.5725 5.88003 94.581 5.99792 95.5555 6.34523C96.195 6.56622 96.796 6.88665 97.337 7.29463C97.9834 7.78287 98.4704 8.45389 98.7357 9.22186C98.9999 9.94682 99.1376 10.7121 99.1425 11.4843C99.1381 14.714 99.1381 17.9433 99.1425 21.1723C99.1425 21.2805 99.1341 21.3884 99.1259 21.4931C99.1242 21.5138 99.1227 21.5344 99.1211 21.5549C99.1189 21.5845 99.1168 21.614 99.115 21.643C98.6273 21.7379 95.6136 21.7367 95.1346 21.643C95.0985 21.4286 95.1018 21.2082 95.1052 20.9793V20.9791C95.109 20.728 95.113 20.4665 95.0655 20.191C95.0168 20.2307 94.9731 20.2649 94.9334 20.296C94.8549 20.3572 94.7919 20.4066 94.7366 20.4623C93.8519 21.321 92.7842 21.7853 91.5795 21.9738C90.5599 22.1314 89.5447 22.1512 88.5417 21.8636C87.4799 21.5649 86.5277 20.962 85.8009 20.1282C85.2725 19.5338 84.9942 18.8205 84.8484 18.0564C84.6737 17.1513 84.7138 16.2175 84.9656 15.3311C85.221 14.402 85.8 13.5962 86.5968 13.0609C87.5807 12.3799 88.7421 12.0058 89.936 11.9848C90.8313 11.9508 91.7265 12.0595 92.588 12.3068C93.3474 12.5191 94.0476 12.9056 94.6335 13.4357C94.7186 13.515 94.8055 13.5912 94.9284 13.6995C94.9767 13.7419 95.0304 13.7894 95.0918 13.8437ZM95.0918 16.0829C94.8181 15.6843 94.446 15.3645 94.0119 15.1546C93.5181 14.9131 92.9832 14.7683 92.4357 14.7278C91.6068 14.643 90.7912 14.7015 90.038 15.106C89.2455 15.5305 88.8156 16.1833 88.8322 17.1039C88.8486 18.0245 89.3101 18.6166 90.0906 19.0079C90.2514 19.0949 90.4219 19.1627 90.5982 19.2097C91.769 19.4831 92.9158 19.4368 94.0174 18.9142C94.4529 18.7147 94.8255 18.3985 95.0939 18.0001L95.0918 16.0829ZM36.7335 19.9529L34.9991 17.4259C34.9585 17.4343 34.9186 17.4461 34.8796 17.461C34.8481 17.482 34.817 17.5052 34.7861 17.5282L34.7857 17.5284L34.7853 17.5288L34.785 17.529C34.7724 17.5384 34.7598 17.5478 34.7472 17.557C33.2255 18.6673 31.5316 19.1139 29.6813 18.7775C28.0588 18.482 26.9592 17.5229 26.434 15.9318C26.3527 15.7189 26.3249 15.4891 26.3529 15.2627C26.4182 15.2604 26.4816 15.2575 26.5436 15.2548C26.6876 15.2487 26.8248 15.2427 26.9625 15.2427C30.3908 15.2472 33.8226 15.2472 37.2575 15.2427C37.301 15.2427 37.3451 15.2452 37.3896 15.2479C37.5427 15.2566 37.7006 15.2656 37.8518 15.1734C37.9228 14.128 37.8535 13.0776 37.6456 12.0509C37.2367 10.1083 36.2885 8.50515 34.7153 7.29233C34.0032 6.744 33.1867 6.34849 32.3166 6.13039C31.0036 5.78711 29.6295 5.75274 28.301 6.02998C25.4847 6.62093 23.5937 8.33754 22.5588 11.008C22.0184 12.4061 21.9372 13.8712 22.1478 15.3453C22.3856 17.0047 23.04 18.47 24.2307 19.6772C25.7161 21.1822 27.5359 21.9264 29.6121 22.0642C30.7062 22.1416 31.8056 22.0692 32.8802 21.8492C34.1113 21.5923 35.2502 21.1304 36.2566 20.3586C36.3625 20.2781 36.4624 20.1902 36.5702 20.0952C36.6224 20.0493 36.6762 20.0019 36.7335 19.9529ZM33.495 12.5272C30.1614 12.5823 26.7214 12.5516 26.2949 12.4644C26.2913 12.45 26.2855 12.436 26.2802 12.4228C26.271 12.4007 26.263 12.3807 26.2664 12.364C26.4967 11.041 27.1368 10.0069 28.3602 9.40271C28.6563 9.26179 28.9715 9.1656 29.2954 9.11703C29.8542 9.02775 30.4237 9.02775 30.9824 9.11703C32.3397 9.33321 33.1936 10.1613 33.7056 11.3971C33.8665 11.7373 33.9419 12.1123 33.9249 12.4886C33.8747 12.4932 33.8255 12.499 33.7766 12.5047H33.7764C33.6812 12.5163 33.5878 12.5272 33.495 12.5272ZM63.8231 15.2207C63.2737 15.2489 62.7399 15.2456 62.2113 15.2422H62.2111C61.9742 15.2406 61.7382 15.2393 61.5023 15.2406C60.9945 15.2435 60.4816 15.2426 59.9688 15.2416L59.6821 15.241C59.5213 15.2408 59.3606 15.2406 59.2002 15.2406H56.9562H54.654C54.4507 15.2406 54.2479 15.2391 54.0459 15.2378H54.0452H54.0446H54.0444C53.4843 15.2339 52.9292 15.2301 52.3792 15.256C52.3137 15.4434 52.32 15.6486 52.3968 15.8316C52.8979 17.4854 54.0139 18.4711 55.68 18.7764C57.5327 19.116 59.2231 18.6541 60.7448 17.5505C60.7916 17.5159 60.8389 17.482 60.8853 17.4489L60.9191 17.4247C61.2129 17.7135 62.2961 19.2583 62.6994 19.9694C62.6569 20.0057 62.6141 20.0433 62.5708 20.0815C62.4824 20.1593 62.3921 20.239 62.2972 20.3123C61.2667 21.1116 60.0959 21.5912 58.8253 21.8557C57.7677 22.0675 56.6869 22.1376 55.6111 22.0642C53.5151 21.9275 51.6799 21.1722 50.189 19.6442C49.1818 18.6178 48.5024 17.3126 48.2376 15.8955C47.9087 14.2273 47.9383 12.557 48.5666 10.9638C49.6024 8.32429 51.4869 6.61095 54.2846 6.03113C55.7209 5.72528 57.2109 5.78941 58.6159 6.21736C59.3167 6.42702 59.977 6.75514 60.5684 7.1877C62.1842 8.37728 63.1774 9.97485 63.6127 11.9286C63.8492 13.0087 63.92 14.119 63.8231 15.2207ZM59.9106 12.4533C59.9566 12.0918 59.8382 11.7621 59.7122 11.4434C59.2134 10.1811 58.3505 9.33763 56.9715 9.11492C56.4127 9.02353 55.8429 9.02103 55.2834 9.10724C54.5721 9.19862 53.9119 9.52751 53.4087 10.0411C52.828 10.6301 52.4309 11.377 52.2664 12.1899C52.2547 12.282 52.2496 12.3748 52.2511 12.4677C52.3248 12.4913 52.401 12.5076 52.4779 12.5163H59.7462C59.8037 12.5051 59.8592 12.485 59.9106 12.4567V12.4533ZM101.576 9.74446H104.002C104.083 9.96314 104.082 10.1455 104.082 10.3204C104.082 10.3504 104.082 10.3801 104.082 10.4099C104.082 10.4287 104.083 10.4477 104.083 10.4665V17.7356C104.078 18.0111 104.086 18.2868 104.107 18.5613C104.298 20.3739 105.266 21.514 106.929 21.9252C107.788 22.138 108.665 22.1282 109.542 22.0278C110.033 21.9798 110.513 21.8556 110.967 21.6595C111.285 21.5173 111.595 21.3685 111.844 21.0839C111.76 20.7894 111.677 20.4947 111.594 20.2C111.428 19.6127 111.262 19.0252 111.094 18.4379C111.056 18.3373 111.01 18.2396 110.957 18.1457C110.479 18.4556 109.979 18.5183 109.458 18.4886C109.256 18.4834 109.059 18.4262 108.885 18.3229C108.712 18.2194 108.567 18.0731 108.465 17.8976C108.258 17.5918 108.144 17.2322 108.136 16.8624C108.132 14.6044 108.132 12.3463 108.136 10.0885C108.15 9.97293 108.176 9.85908 108.213 9.74888H108.774H110.911C111.029 9.74101 111.146 9.72353 111.262 9.69704C111.353 8.75992 111.321 6.64416 111.204 6.24386H110.673H108.536C108.407 6.2333 108.279 6.21429 108.153 6.18645C108.15 6.11925 108.147 6.05494 108.144 5.99273C108.138 5.86141 108.133 5.7393 108.133 5.61662V2.52938C108.133 2.50077 108.134 2.47178 108.135 2.44221C108.142 2.30705 108.148 2.16305 108.011 2.01003C107.809 2.01003 107.602 2.00888 107.392 2.00773C106.963 2.00523 106.523 2.00274 106.086 2.01003C105.884 2.01349 105.682 2.00984 105.479 2.0062H105.478C105.028 1.99794 104.572 1.98949 104.106 2.05861C104.104 2.10488 104.101 2.1498 104.098 2.19358C104.097 2.21105 104.096 2.22833 104.095 2.24542C104.087 2.37924 104.079 2.50346 104.079 2.62748V5.65617C104.079 5.68804 104.08 5.72048 104.082 5.75312C104.088 5.90249 104.095 6.05993 103.969 6.22178C103.926 6.22332 103.881 6.22543 103.834 6.22773L103.822 6.22811C103.707 6.23368 103.582 6.23944 103.458 6.23944H101.87C101.752 6.24789 101.635 6.2644 101.52 6.28898C101.429 7.19422 101.46 9.34857 101.576 9.74446ZM40.8905 0.318772C41.2887 0.318772 41.6804 0.317621 42.0683 0.316469C43.0099 0.313397 43.9283 0.310517 44.8601 0.325492C44.887 0.438192 44.9082 0.552235 44.9236 0.667239C44.9295 0.764963 44.9274 0.86326 44.9255 0.961368C44.925 0.993431 44.9244 1.0253 44.924 1.05736C44.9238 1.07426 44.9236 1.09135 44.9236 1.10825V20.9186C44.9236 21.0699 44.921 21.2212 44.9181 21.3783C44.9166 21.4662 44.9148 21.5558 44.9137 21.6486C44.5901 21.7309 44.2793 21.7223 43.9745 21.7139H43.9743C43.8433 21.7102 43.7135 21.7066 43.5841 21.7102C43.2968 21.7183 43.0028 21.7156 42.7086 21.7129C42.5616 21.7116 42.4146 21.7102 42.2684 21.7102L40.9388 21.7004C40.931 21.6557 40.9231 21.6148 40.9157 21.5764C40.8998 21.4946 40.8861 21.4243 40.8817 21.3531C40.8758 21.2686 40.8779 21.1832 40.8798 21.0974C40.8804 21.0678 40.8811 21.038 40.8815 21.0083C40.8817 20.9948 40.8817 20.9816 40.8817 20.9682V1.04757C40.8825 0.972313 40.8838 0.896671 40.8851 0.817186C40.8876 0.670888 40.8905 0.511724 40.8905 0.318772ZM132.757 21.7125H136.704L136.706 11.5085C136.96 11.1011 137.314 10.7666 137.734 10.5372C138.713 9.9616 139.762 9.63867 140.913 9.70817C141.065 9.71605 141.217 9.71355 141.38 9.71086C141.465 9.70952 141.553 9.70817 141.644 9.70817C141.676 9.37871 141.672 9.06462 141.668 8.75071C141.667 8.64454 141.665 8.53817 141.665 8.43142C141.665 8.2905 141.667 8.14919 141.668 8.0077C141.671 7.72508 141.673 7.44266 141.665 7.16561C141.662 7.03544 141.666 6.9047 141.67 6.77357C141.68 6.48577 141.689 6.19586 141.614 5.90441C141.284 5.86237 140.95 5.88099 140.627 5.95952C139.298 6.25115 138.084 6.93119 137.138 7.9142C137.065 7.98619 136.991 8.0555 136.897 8.14209C136.848 8.18817 136.793 8.23905 136.73 8.29799C136.724 7.86428 136.718 7.46397 136.713 7.07922C136.709 6.81849 136.705 6.56506 136.701 6.31336C136.207 6.22082 133.247 6.21736 132.699 6.30683C132.697 6.37172 132.694 6.43719 132.691 6.50343C132.685 6.64474 132.679 6.78931 132.679 6.93964V15.8558V21.0841C132.679 21.1194 132.678 21.1552 132.677 21.1913C132.672 21.3541 132.667 21.5247 132.757 21.7125Z" fill="white"/>
</svg>
